<?xml version="1.0" standalone="no"?>
<!DOCTYPE svg PUBLIC "-//W3C//DTD SVG 20010904//EN"
 "http://www.w3.org/TR/2001/REC-SVG-20010904/DTD/svg10.dtd">
<svg version="1.0" xmlns="http://www.w3.org/2000/svg"
 width="512.000000pt" height="512.000000pt" viewBox="0 0 512.000000 512.000000"
 preserveAspectRatio="xMidYMid meet">
<metadata>
Created by potrace 1.11, written by Peter Selinger 2001-2013
</metadata>
<g transform="translate(0.000000,512.000000) scale(0.100000,-0.100000)"
fill="#000000" stroke="none">
<path d="M2349 5116 c-2 -2 -40 -6 -84 -10 -80 -6 -228 -23 -275 -31 -14 -3
-45 -8 -70 -11 -178 -24 -691 -140 -881 -200 -392 -123 -703 -419 -846 -804
-49 -131 -64 -198 -82 -353 -25 -223 22 -479 129 -700 43 -90 90 -161 486
-732 149 -214 346 -500 439 -635 94 -135 193 -279 222 -320 28 -41 87 -127
131 -190 336 -489 659 -951 685 -979 47 -49 141 -108 205 -127 74 -22 204 -27
269 -10 76 20 158 63 212 112 44 40 223 295 1268 1807 111 161 256 371 323
467 359 517 380 549 437 690 27 64 57 163 68 220 28 148 36 309 21 438 -50
463 -368 887 -802 1071 -93 39 -353 114 -544 155 -14 3 -43 10 -65 15 -167 38
-492 93 -630 107 -38 3 -79 9 -90 11 -23 5 -521 13 -526 9z m510 -150 c19 -3
65 -8 103 -11 38 -4 79 -8 91 -11 12 -2 42 -6 67 -9 25 -3 56 -8 70 -11 14 -2
39 -7 55 -9 247 -42 660 -139 825 -195 285 -96 541 -322 679 -597 190 -380
161 -833 -75 -1193 -51 -78 -182 -269 -195 -283 -4 -5 -17 -2 -30 6 -13 8
-235 136 -494 285 -258 149 -742 428 -1075 620 -651 376 -631 367 -673 310
-17 -23 -18 -31 -8 -57 12 -28 77 -69 481 -299 19 -11 132 -76 250 -144 118
-69 494 -285 835 -482 341 -197 622 -360 624 -362 3 -2 -4 -17 -16 -32 -11
-15 -55 -79 -98 -142 -137 -199 -129 -190 -153 -177 -11 7 -38 22 -59 33 -21
12 -137 79 -258 149 -121 71 -240 139 -265 153 -25 14 -128 73 -230 132 -174
101 -391 227 -470 273 -19 11 -53 30 -76 43 -22 12 -134 77 -249 143 -114 67
-210 121 -213 121 -3 0 -13 6 -21 14 -9 7 -41 27 -71 43 -54 29 -425 243 -605
348 -49 29 -106 62 -125 73 -19 11 -64 37 -100 57 -36 21 -83 48 -105 60 -22
13 -123 71 -225 130 -102 59 -204 118 -227 131 -120 68 -339 197 -346 203 -19
18 158 206 263 280 l57 40 58 -34 c32 -19 59 -35 60 -35 2 0 92 -52 200 -115
109 -63 199 -115 200 -115 2 0 49 -27 104 -60 114 -68 148 -74 180 -34 21 27
22 46 6 76 -9 14 -157 106 -326 200 -24 14 -108 63 -187 109 -122 71 -141 85
-127 95 46 34 466 145 750 199 44 8 91 17 105 20 80 16 94 18 190 30 30 4 57
8 60 10 3 2 39 6 80 10 41 4 109 10 150 14 80 9 502 6 559 -3z m-1983 -1083
c264 -152 493 -284 509 -293 17 -9 102 -59 190 -110 88 -51 232 -134 320 -185
193 -111 415 -239 750 -433 138 -79 270 -156 295 -170 25 -14 124 -71 220
-127 96 -56 198 -114 225 -129 28 -16 163 -94 300 -174 138 -80 270 -157 295
-171 25 -14 54 -31 64 -37 17 -10 6 -29 -115 -204 -74 -107 -137 -198 -141
-204 -4 -6 -11 -6 -20 1 -7 6 -33 22 -58 35 -55 31 -55 31 -370 213 -140 81
-273 158 -295 170 -22 13 -80 46 -130 75 -49 29 -103 60 -120 70 -31 17 -682
393 -975 562 -91 53 -181 105 -200 115 -19 11 -134 78 -255 148 -121 70 -236
137 -255 147 -19 11 -57 33 -85 49 -27 16 -212 123 -410 237 l-360 208 0 39
c-1 78 47 257 100 373 19 39 36 72 38 72 3 0 220 -124 483 -277z m-516 -430
c56 -32 115 -66 132 -76 115 -68 1014 -586 1058 -610 30 -16 66 -38 80 -47 14
-9 50 -31 80 -48 30 -16 357 -204 725 -417 369 -213 686 -396 705 -407 255
-146 552 -319 559 -324 3 -3 -127 -195 -201 -296 -20 -28 -39 -55 -40 -60 -2
-5 -87 39 -188 97 -284 165 -285 165 -311 165 -32 0 -69 -34 -69 -64 0 -13 8
-33 18 -44 9 -12 116 -78 237 -147 121 -69 221 -128 223 -129 6 -6 -520 -761
-557 -799 -20 -21 -65 -52 -101 -70 -57 -28 -74 -32 -150 -32 -76 0 -93 4
-150 32 -36 18 -81 49 -101 70 -31 32 -152 204 -557 793 -36 52 -80 115 -97
140 -17 25 -58 83 -90 130 -33 47 -107 155 -166 240 -59 85 -122 175 -139 200
-35 50 -380 549 -503 728 -43 63 -77 115 -75 116 2 2 129 -71 283 -160 154
-90 296 -172 315 -182 19 -11 193 -111 385 -222 193 -111 370 -214 394 -227
24 -14 164 -95 310 -180 288 -167 305 -173 344 -121 17 23 18 31 7 57 -11 28
-64 63 -253 170 -18 10 -120 69 -227 131 -107 62 -211 122 -230 133 -31 17
-256 147 -670 387 -69 40 -141 81 -160 92 -19 11 -186 108 -371 214 l-335 194
-49 82 c-60 101 -106 213 -139 338 -25 97 -43 210 -32 210 3 0 51 -26 106 -57z"/>
<path d="M3879 4546 c-15 -7 -49 -64 -98 -163 -42 -83 -78 -154 -81 -156 -5
-5 -174 -32 -270 -44 -25 -3 -56 -10 -70 -17 -31 -14 -51 -53 -41 -79 4 -11
63 -75 130 -142 l123 -122 -29 -164 c-33 -184 -31 -216 21 -234 25 -9 46 0
187 73 l159 82 128 -67 c70 -37 138 -73 152 -80 14 -7 34 -13 46 -13 27 0 64
36 64 63 0 18 -16 126 -24 162 -1 6 -8 48 -15 95 l-14 86 127 124 c132 131
143 151 111 197 -13 19 -30 25 -110 37 -60 9 -189 28 -218 32 -17 2 -34 7 -38
11 -5 5 -40 73 -79 152 -39 79 -76 149 -83 155 -19 19 -53 25 -78 12z m86
-336 c33 -64 64 -111 75 -115 28 -9 99 -21 180 -30 24 -3 46 -8 49 -11 3 -3
-30 -40 -73 -82 -42 -42 -82 -85 -88 -95 -9 -18 -5 -75 12 -152 5 -22 11 -55
14 -73 l6 -33 -106 56 c-59 30 -114 55 -124 55 -10 0 -66 -25 -125 -56 l-107
-55 6 28 c8 42 28 164 31 198 3 26 -9 42 -88 122 -67 69 -86 93 -71 94 24 1
47 4 99 13 22 3 58 8 79 11 21 2 46 11 55 19 9 8 38 60 66 115 27 56 50 101
52 101 1 0 27 -49 58 -110z"/>
<path d="M1828 4118 c-53 -43 -39 -92 38 -136 65 -37 96 -40 124 -12 20 20 26
65 12 86 -14 21 -109 74 -134 74 -13 0 -31 -6 -40 -12z"/>
</g>
</svg>
